HIERARCHY
ROOT Hips
{
  OFFSET 0.382225 96.6805 0.598322
  CHANNELS 6 Xposition Yposition Zposition Zrotation Xrotation Yrotation
  JOINT Spine
  {
    OFFSET 10.8089 -0.851416 0
    CHANNELS 3 Zrotation Xrotation Yrotation
    JOINT Spine1
    {
      OFFSET 18.8753 3.80116 0
      CHANNELS 3 Zrotation Xrotation Yrotation
      JOINT Spine2
      {
        OFFSET 13.4073 0.420477 0
        CHANNELS 3 Zrotation Xrotation Yrotation
        JOINT LeftShoulder
        {
          OFFSET 11.8837 -2.73209 -3.78198
          CHANNELS 3 Zrotation Xrotation Yrotation
          JOINT LeftArm
          {
            OFFSET 15.7849 0 -2.35849e-005
            CHANNELS 3 Zrotation Xrotation Yrotation
            JOINT LeftForeArm
            {
              OFFSET 30.3399 0 0
              CHANNELS 3 Zrotation Xrotation Yrotation
              JOINT LeftHand
              {
                OFFSET 26.9751 0 2.45913e-005
                CHANNELS 3 Zrotation Xrotation Yrotation
                End Site
                {
                  OFFSET 8 0 0
                }
              }
            }
          }
        }
        JOINT RightShoulder
        {
          OFFSET 11.8838 -2.7321 3.782
          CHANNELS 3 Zrotation Xrotation Yrotation
          JOINT RightArm
          {
            OFFSET -15.7848 0 -1.07056e-005
            CHANNELS 3 Zrotation Xrotation Yrotation
            JOINT RightForeArm
            {
              OFFSET -30.34 1.02096e-005 -2.53607e-005
              CHANNELS 3 Zrotation Xrotation Yrotation
              JOINT RightHand
              {
                OFFSET -26.9752 2.07668e-005 0
                CHANNELS 3 Zrotation Xrotation Yrotation
                End Site
                {
                  OFFSET -8 0 0
                }
              }
            }
          }
        }
        JOINT Neck
        {
          OFFSET 16.5588 -0.355318 0
          CHANNELS 3 Zrotation Xrotation Yrotation
          JOINT Head
          {
            OFFSET 9.28361 0.364157 0
            CHANNELS 3 Zrotation Xrotation Yrotation
            End Site
            {
              OFFSET 0 0 0
            }
          }
        }
      }
    }
  }
  JOINT LeftUpLeg
  {
    OFFSET -1.44883 -0.531424 -9.00581
    CHANNELS 3 Zrotation Xrotation Yrotation
    JOINT LeftLeg
    {
      OFFSET -42.572 0.0788889 -0.011964
      CHANNELS 3 Zrotation Xrotation Yrotation
      JOINT LeftFoot
      {
        OFFSET -40.1967 0 0
        CHANNELS 3 Zrotation Xrotation Yrotation
				JOINT LeftToe
        {
          OFFSET -10.4538 -16.5779 0.0801563
          CHANNELS 3 Zrotation Xrotation Yrotation
          End Site
          {
            OFFSET -1.0 -1.0 0.0
          }
        }
      }
    }
  }
  JOINT RightUpLeg
  {
    OFFSET -1.44865 -0.531427 9.0058
    CHANNELS 3 Zrotation Xrotation Yrotation
    JOINT RightLeg
    {
      OFFSET 42.5723 -3.24776e-005 0
      CHANNELS 3 Zrotation Xrotation Yrotation
      JOINT RightFoot
      {
        OFFSET 40.1968 0 -1.14003e-005
        CHANNELS 3 Zrotation Xrotation Yrotation
				JOINT RightToe
        {
          OFFSET 10.4538 16.5778 -0.0801573
          CHANNELS 3 Zrotation Xrotation Yrotation
          End Site
          {
            OFFSET -1.0 -1.0 0.0
          }
        }
      }
    }
  }
}
MOTION
Frames:	15
Frame Time:	0.0333333
77.5115 72.2538 -1.232 -54.3447 -1.98447 -169.489 -36.7731 -2.51828 21.3103 20.0007 -0.31892 -0.556338 2.7794 1.93418e-006 1.65929e-005 -4.09546 14.7414 93.2039 -7.29463 -4.14234 20.6542 -76.5243 8.68426 -19.6673 -145.343 -53.8596 -134.253 -174.472 2.15763 60.2549 37.3119 -57.3414 47.1076 -79.967 -8.91364 -6.26487 -131.821 -47.7479 -118.397 -23.508 4.63459e-006 -5.90926e-006 7.93915 -1.41983 31.6666 112.413 13.326 -31.2084 -87.4644 0.146275 -4.19549 10.3713 5.11196 -0.380358 -90 0 0 -127.981 -0.925003 -24.7501 -61.6009 -1.37767 -5.02001 23.17 26.8625 18.3503 -90 0 0
70.7627 77.3397 -2.6327 -44.015 -9.0009 -159.268 -31.225 -12.9229 24.446 20.2594 -0.334123 -0.579822 2.7794 1.93418e-006 1.65929e-005 -2.71618 12.0732 83.7991 -7.3731 -23.7439 8.01044 -86.4005 13.9792 -20.2835 -129.936 -56.0809 -116.846 -171.83 4.0699 52.8502 44.4083 -51.8014 41.0616 -86.943 -8.67954 -6.85751 -131.385 -44.7764 -121.386 -23.508 4.63459e-006 -5.90926e-006 12.6063 -3.62363 32.1449 113.063 14.3742 -27.6958 -79.3368 -0.862964 -4.07645 10.7782 -4.99662 1.3785 -90 0 0 -133.459 19.1308 -21.8138 -43.4451 -3.46128 -3.16907 24.0177 25.4458 5.50658 -90 0 0
62.7578 83.8269 -2.20642 -34.2346 -8.56616 -149.76 -21.3075 -25.4684 32.5229 21.9497 -0.436004 -0.731486 2.7794 1.93418e-006 1.65929e-005 -1.45141 8.85555 66.8238 -10.5814 -36.82 -4.46019 -82.6081 11.9427 -20.1568 -102.204 -47.5059 -88.0658 -171.292 2.38444 48.7753 46.2968 -45.5736 36.7049 -95.1243 -8.3166 -7.50998 -133.498 -43.7012 -126.081 -23.508 4.63459e-006 -5.90926e-006 21.7546 -0.400314 25.0551 114.393 13.6259 -28.7589 -70.2975 -1.91102 -3.75696 7.45311 -16.06 2.54774 -90 0 0 -126.653 51.3274 -29.7318 -24.598 -5.11113 -0.733214 -2.18709 -10.2078 14.1262 -90 0 0
55.3569 89.7946 0.913326 -33.6632 1.44941 -140.915 -12.3637 -25.6123 39.5781 25.7652 -0.682194 -1.06242 2.7794 1.93418e-006 1.65929e-005 -0.475592 8.92196 58.5604 -26.2823 -35.8729 -18.5265 -69.0566 4.77457 -18.5991 -102.961 -51.1831 -104.695 -171.693 0.442385 46.8212 35.1914 -42.8149 23.4739 -102.758 -7.89753 -8.06623 -137.968 -51.4199 -128.288 -23.508 4.63459e-006 -5.90926e-006 33.0954 4.13129 19.6697 113.186 6.83592 -35.7704 -62.2416 -2.74645 -3.31492 9.46297 -17.1288 3.04133 -90 0 0 -148.043 36.6064 -7.59207 -12.4132 -5.56186 1.01518 -25.7075 -33.7344 16.4299 -90 0 0
49.1282 94.1142 5.83651 -42.1229 6.80335 -132.151 -12.0459 -20.9138 40.9518 27.5727 -0.806427 -1.21334 2.7794 1.93418e-006 1.65929e-005 -1.3217 7.2428 59.2798 -14.1798 -26.2418 -8.08693 -72.1089 6.35461 -19.0963 -125.973 -55.8973 -122.554 -172.734 -1.124 47.4646 20.8351 -40.85 10.5158 -108.697 -7.52252 -8.45732 -140.686 -63.491 -127.098 -23.508 4.63459e-006 -5.90926e-006 46.4892 6.71214 19.6241 102.565 -2.24532 -42.5742 -57.7691 -3.24738 -3.00307 12.1306 -9.81211 4.96477 -90 0 0 -155.63 29.0776 -10.1332 -25.9688 -5.06065 -0.917111 -29.6727 -32.7556 3.64457 -90 0 0
42.6989 98.4396 11.2199 -48.4553 10.3357 -122.771 -7.423 -14.8504 42.2114 27.1639 -0.777913 -1.17955 2.7794 1.93418e-006 1.65929e-005 -1.66315 7.51297 64.3407 -7.01817 -13.0625 6.27804 -75.9351 8.37097 -19.6014 -81.1629 -75.2556 -74.3197 -172.908 0.937618 51.9995 7.84741 -30.4834 15.3192 -108.789 -7.51647 -8.46303 -140.168 -74.751 -124.34 -23.508 4.63459e-006 -5.90926e-006 53.4967 3.62014 12.0411 91.6533 -8.39166 -50.4466 -50.5881 -3.96557 -2.39741 11.9039 -6.67383 6.25425 -90 0 0 -158.079 28.9406 -22.5444 -32.6338 -4.63074 -1.71032 -27.5286 -7.93909 8.99142 -90 0 0
36.6533 103.542 16.787 -56.0404 12.2014 -109.846 -3.86001 -7.11404 39.5806 27.113 -0.774383 -1.17532 2.7794 1.93418e-006 1.65929e-005 -1.94034 8.78759 72.0633 -5.6798 -4.48579 20.291 -66.9764 3.71592 -18.2136 -95.8609 -80.7415 -95.9345 -174.4 5.27255 63.17 -9.42506 -23.7708 23.3132 -91.5432 -8.48684 -7.23081 -130.695 -85.1232 -114.335 -23.508 4.63459e-006 -5.90926e-006 51.7668 2.52969 0.497814 95.3083 -4.11548 -65.411 -36.3145 -5.09262 -0.905321 4.33488 -19.9925 3.60122 -90 0 0 -159.665 26.9929 -30.9515 -33.5787 -4.57248 -1.75535 -25.489 -5.30941 6.77527 -90 0 0
32.1092 109.301 22.4575 -59.4276 11.136 -97.0426 -1.57065 -5.21891 33.8856 27.9471 -0.832731 -1.24411 2.7794 1.93418e-006 1.65929e-005 -2.77915 11.469 84.4743 -5.06562 -4.37383 25.503 -46.8688 -5.38281 -12.7446 -114.429 -63.1562 -107.402 -176.925 5.14521 74.0617 -20.4297 -19.7046 32.7009 -63.2334 -9.17394 -4.7616 -72.078 -81.4245 -57.5221 -23.508 4.63459e-006 -5.90926e-006 43.8129 0.925536 -6.59602 114.624 5.00929 -72.8351 -12.8945 -6.19363 0.897324 -22.7385 -30.1189 -3.04172 -90 0 0 -154.803 27.8005 -41.3515 -34.4229 -4.47576 -1.76375 -19.8766 -10.944 2.69803 -90 0 0
28.9941 113.342 27.2044 -59.1323 8.23676 -86.4596 -5.36573 -1.14337 29.1968 28.5835 -0.877972 -1.29602 2.7794 1.93418e-006 1.65929e-005 -4.587 13.6289 99.3273 -8.94105 -3.80919 27.5132 -33.4365 -9.94527 -7.66816 -140.205 -45.1194 -135.376 -178.649 4.3476 83.8851 -23.6547 -7.11004 32.9165 -34.8138 -8.61639 -2.25041 -138.014 -76.0876 -124.54 -23.508 4.63459e-006 -5.90926e-006 33.673 -5.00513 -6.50667 133.986 10.9861 -76.2659 -8.12546 -6.53063 1.49267 -32.548 -25.8788 -2.10578 -90 0 0 -151.973 22.5004 -50.4377 -34.014 -4.42043 -1.67605 -16.9993 -1.05316 -2.69906 -90 0 0
26.515 115.86 31.1285 -58.3803 1.25345 -77.9255 -15.5258 6.07205 28.0176 25.6782 -0.676319 -1.05504 2.7794 1.93418e-006 1.65929e-005 -5.8075 15.5562 104.062 -10.6981 1.68868 40.1248 -37.9518 -8.56475 -9.47646 -138.837 -38.9178 -136.995 179.994 6.9673 89.2911 -20.5748 3.43346 37.3678 -16.473 -7.64206 -0.897049 -154.852 -71.2337 -143.495 -23.508 4.63459e-006 -5.90926e-006 30.596 -13.7982 -7.89236 115.957 5.20286 -72.1635 -25.5311 -5.40923 -0.635303 -30.1003 -19.1643 -13.0279 -90 0 0 -146.993 16.5623 -61.6195 -29.1987 -4.71026 -1.24918 -16.3001 3.89856 -7.0897 -90 0 0
24.5221 118.71 34.551 -54.1825 -0.825002 -68.5745 -22.0783 6.96105 24.7983 23.8071 -0.553087 -0.894613 2.7794 1.93418e-006 1.65929e-005 -7.22025 19.5015 103.641 -8.55423 6.72054 48.4656 -46.8424 -5.39299 -12.7356 -127.109 -45.8809 -122.795 177.709 11.3436 94.334 -12.7385 6.04088 43.3161 -9.55835 -7.17024 -0.478431 -140.256 -62.4568 -128.043 -23.508 4.63459e-006 -5.90926e-006 28.7611 -18.973 -11.9762 89.5306 -2.35546 -59.8094 -37.8442 -4.64091 -0.992015 -22.6971 -17.7538 -5.24921 -90 0 0 -139.751 11.1662 -66.8908 -23.3791 -5.02061 -0.625245 -13.9881 -4.47664 -10.9845 -90 0 0
21.79 121.589 38.3848 -50.1461 -0.702685 -57.5155 -27.6651 6.92935 18.0674 22.9985 -0.501451 -0.824044 2.7794 1.93418e-006 1.65929e-005 -7.73791 24.3517 99.3709 -1.68159 6.5873 49.5685 -52.7917 -2.95464 -14.6563 -125.032 -48.3771 -120.653 175.662 14.0437 98.2059 0.432123 7.80259 46.7339 -8.88918 -7.12191 -0.441046 -142.51 -48.7098 -134.736 -23.508 4.63459e-006 -5.90926e-006 32.4523 -19.5196 -13.5082 76.8355 -3.55128 -53.315 -41.2388 -4.40621 -1.37734 -11.8135 -17.9161 -0.104012 -90 0 0 -132.415 5.56918 -65.6634 -20.33 -5.18883 -0.183155 -12.9866 -10.9189 -11.0791 -90 0 0
17.9172 123.211 42.5134 -45.8995 -1.66444 -44.0903 -32.2888 8.97228 7.22501 20.6245 -0.355728 -0.612834 2.7794 1.93418e-006 1.65929e-005 -6.24686 27.6854 92.4975 9.63239 2.18531 43.5246 -55.2945 -1.85975 -15.3935 -125.377 -46.8913 -122.13 173.971 16.9924 99.5757 6.75199 11.1598 47.0182 -7.25555 -7.00216 -0.352127 -138.218 -44.1608 -136.083 -23.508 4.63459e-006 -5.90926e-006 38.8291 -17.7181 -12.6628 63.0184 -0.525814 -52.9977 -35.9861 -4.66975 -0.88922 -8.9342 -11.0814 -2.47526 -90 0 0 -122.573 3.71234 -60.7336 -19.7816 -5.24499 -0.100339 -11.6783 -15.0148 -7.93779 -90 0 0
12.8989 122.899 46.3887 -40.6066 -2.75819 -30.7317 -35.0642 9.99578 -4.11257 18.3053 -0.221966 -0.400854 2.7794 1.93418e-006 1.65929e-005 -3.03035 30.4926 83.3832 19.0411 -4.93412 30.3103 -56.168 -1.46788 -15.6409 -127.167 -46.4151 -123.744 173.458 18.6668 99.0079 7.03331 16.9581 45.1026 -4.59457 -6.80196 -0.21473 -131.184 -46.0384 -135.08 -23.508 4.63459e-006 -5.90926e-006 40.5129 -13.799 -13.5609 49.6517 8.48921 -57.1247 -27.3581 -5.07736 -0.607394 -12.4081 -19.0833 -4.96065 -90 0 0 -112.646 3.45858 -55.5644 -21.9027 -5.19898 -0.394651 -7.6591 -18.3887 -3.13611 -90 0 0
7.24116 120.94 49.5116 -37.5307 -1.14181 -18.216 -30.5073 9.73524 -15.5584 15.7651 -0.0854515 -0.162761 2.7794 1.93418e-006 1.65929e-005 2.91659 28.9984 68.9468 20.02 -11.8343 17.4601 -59.7446 0.180943 -16.5935 -130.409 -47.7193 -126.408 173.983 18.9612 97.3507 12.8696 20.109 39.2478 -5.60382 -6.87867 -0.265724 -128.122 -51.8884 -133.32 -23.508 4.63459e-006 -5.90926e-006 34.0451 -9.80372 -15.0758 42.7584 19.4387 -62.882 -23.1426 -5.23548 -0.266552 -17.0177 -22.8008 -7.0543 -90 0 0 -98.1487 4.15759 -52.7327 -25.5954 -5.07107 -0.836549 -4.74835 -21.894 0.15968 -90 0 0
